<svg xmlns="http://www.w3.org/2000/svg" viewBox="0 0 1400 946" role="img" aria-labelledby="title desc">
  <title id="title">Brew Buddy product system mockup</title>
  <desc id="desc">A stylized mobile brewing dashboard with design system tokens, recipe cards, and circular beer label artwork.</desc>
  <rect width="1400" height="946" fill="#f4efe5"/>
  <rect x="90" y="86" width="1220" height="774" rx="36" fill="#fffaf0" stroke="#d8cab7" stroke-width="4"/>
  <g transform="translate(156 142)">
    <rect width="390" height="650" rx="48" fill="#191713"/>
    <rect x="20" y="20" width="350" height="610" rx="34" fill="#f7f1e5"/>
    <rect x="48" y="58" width="118" height="18" rx="9" fill="#465b3d"/>
    <text x="48" y="116" fill="#191713" font-family="Georgia, serif" font-size="48">Brew Buddy</text>
    <rect x="48" y="150" width="294" height="156" rx="20" fill="#a64f2b"/>
    <circle cx="126" cy="228" r="54" fill="#f2c15c"/>
    <path d="M96 224c18-38 55-38 72 0-14 22-57 22-72 0z" fill="#fffaf0"/>
    <rect x="198" y="196" width="104" height="12" rx="6" fill="#fffaf0" opacity=".86"/>
    <rect x="198" y="224" width="74" height="12" rx="6" fill="#fffaf0" opacity=".66"/>
    <rect x="48" y="340" width="84" height="84" rx="42" fill="#465b3d"/>
    <rect x="154" y="340" width="84" height="84" rx="42" fill="#f2c15c"/>
    <rect x="260" y="340" width="84" height="84" rx="42" fill="#2f6f73"/>
    <rect x="48" y="470" width="294" height="72" rx="18" fill="#fffaf0" stroke="#d8cab7" stroke-width="3"/>
    <rect x="48" y="562" width="294" height="42" rx="21" fill="#465b3d"/>
  </g>
  <g transform="translate(628 174)">
    <text x="0" y="0" fill="#a64f2b" font-family="Arial, sans-serif" font-size="26" font-weight="700">Design system inputs</text>
    <text x="0" y="62" fill="#191713" font-family="Georgia, serif" font-size="70">From tokens to product</text>
    <text x="0" y="122" fill="#756f64" font-family="Arial, sans-serif" font-size="28">Figma library + architecture + dashboard screen</text>
    <g transform="translate(0 194)">
      <rect width="238" height="132" rx="18" fill="#f7f1e5" stroke="#d8cab7" stroke-width="3"/>
      <text x="28" y="48" fill="#a64f2b" font-family="Arial, sans-serif" font-size="18" font-weight="700">FOUNDATIONS</text>
      <circle cx="54" cy="88" r="18" fill="#a64f2b"/>
      <circle cx="104" cy="88" r="18" fill="#465b3d"/>
      <circle cx="154" cy="88" r="18" fill="#f2c15c"/>
    </g>
    <g transform="translate(270 194)">
      <rect width="238" height="132" rx="18" fill="#f7f1e5" stroke="#d8cab7" stroke-width="3"/>
      <text x="28" y="48" fill="#a64f2b" font-family="Arial, sans-serif" font-size="18" font-weight="700">PATTERNS</text>
      <rect x="28" y="74" width="182" height="16" rx="8" fill="#465b3d"/>
      <rect x="28" y="102" width="126" height="16" rx="8" fill="#d8cab7"/>
    </g>
    <g transform="translate(540 194)">
      <rect width="238" height="132" rx="18" fill="#f7f1e5" stroke="#d8cab7" stroke-width="3"/>
      <text x="28" y="48" fill="#a64f2b" font-family="Arial, sans-serif" font-size="18" font-weight="700">FLOWS</text>
      <path d="M38 98h54l34-38 42 68 34-30" fill="none" stroke="#465b3d" stroke-width="10" stroke-linecap="round" stroke-linejoin="round"/>
    </g>
    <g transform="translate(0 386)">
      <rect width="778" height="116" rx="20" fill="#191713"/>
      <text x="36" y="48" fill="#fffaf0" font-family="Arial, sans-serif" font-size="20" font-weight="700">Build log</text>
      <text x="36" y="84" fill="#f2c15c" font-family="Georgia, serif" font-size="34">Prototype, recipes, bottom sheet, mobile test, timer</text>
    </g>
  </g>
</svg>
